<?xml version="1.0" encoding="UTF-8"?>
<svg width="329" height="779" xmlns="http://www.w3.org/2000/svg" xmlns:svg="http://www.w3.org/2000/svg" xmlns:xlink="http://www.w3.org/1999/xlink">
 <title>green lollipop</title>
 <defs>
  <linearGradient id="linearGradient6641">
   <stop stop-color="#d9d9d9" offset="0" id="stop6643"/>
   <stop stop-color="#ffffff" offset="1" id="stop6645"/>
  </linearGradient>
  <linearGradient y2="0.5" y1="0.5" xlink:href="#linearGradient6641" x2="1.139237" x1="-0.139226" id="linearGradient6647"/>
 </defs>
 <g>
  <title>Layer 1</title>
  <g id="layer1">
   <g id="g10464">
    <path fill="#797979" fill-opacity="0.686486" stroke-width="13.999949" stroke-miterlimit="4" id="rect8167" d="m174.80206,0.12499c-56.15284,0 -97.655,37.4407 -125.06362,65.625c-27.40861,28.18428 -26.37523,47.1166 -26.37523,90.09375c0,42.97714 -5.03343,57.90945 22.3752,86.09375c23.21857,23.87566 57.47601,57.16212 103.21967,66.8125l0,431.12502c0,13.9265 6.92602,25.125 15.53139,25.125l19.21891,0c8.60537,0 15.53138,-11.1985 15.53139,-25.125l0,-430.78127c46.93776,-9.21688 83.14753,-43.01339 106.62595,-67.15625c27.40861,-28.18429 22.37519,-43.11662 22.3752,-86.09375c0,-42.97714 7.03341,-55.90948 -20.37519,-84.09375c-27.4086,-28.18429 -76.98361,-71.625 -133.06367,-71.625z"/>
    <rect fill="url(#linearGradient6647)" stroke="#000000" stroke-width="13.999949" stroke-miterlimit="4" y="279.29285" x="133.94189" width="50.275867" ry="25.138121" rx="15.533021" id="rect4365" height="492.70718"/>
    <path fill="#0000ff" stroke="#000000" stroke-width="13.999949" stroke-miterlimit="4" id="path1301" d="m313.21921,162.84613c0,42.97714 5.03997,57.90571 -22.36839,86.09c-27.40837,28.18428 -72.12232,69.62428 -131.05903,69.62428c-58.93672,0 -101.65069,-41.44 -129.05906,-69.62428c-27.40837,-28.18429 -22.3684,-43.11286 -22.3684,-86.09c0,-42.97714 -1.04,-61.90571 26.36837,-90.08999c27.40837,-28.18429 68.90676,-65.62429 125.05909,-65.62429c56.07958,0 105.65064,43.44 133.05901,71.62429c27.40836,28.18428 20.36841,41.11285 20.36841,84.08999z"/>
    <path fill="#0000ff" stroke-width="8.8" stroke-miterlimit="4" id="path3583" d="m45.41832,107.65065c77.1423,18.67403 154.84813,14.1105 233.42689,-6c11.81187,0 34.28544,11.29143 34.28544,30.28571c0,14.2858 0,20.57161 0,34.85741c0,18.99428 -3.2914,34.28571 -22.28553,34.28571c-77.14231,17.23757 -174.28446,12.92818 -251.42676,0c-18.99414,0 -26.28551,-15.29143 -26.28551,-34.28571c0,-14.2858 0,-14.57161 0,-28.85741c0,-18.99428 20.4736,-30.28571 32.28547,-30.28571z"/>
    <path fill="#0000ff" stroke="#000000" stroke-width="8.799968" stroke-miterlimit="4" id="rect2064" d="m20.64994,119.70324c77.1423,18.67403 200.8478,14.1105 279.42654,-6c11.81187,0 8.28565,11.29143 8.28565,30.28571c0,14.2858 0,20.57161 0,34.85741c0,18.99428 -3.29141,34.28571 -22.28554,34.28571c-77.1423,17.23757 -174.28445,12.92818 -251.42675,0c-18.99414,0 -26.28552,-15.29143 -26.28552,-34.28571c0,-14.2858 0,-14.57161 0,-28.85741c0,-18.99428 0.47375,-30.28571 12.28562,-30.28571z"/>
    <path fill="#0000ff" stroke-width="8.8" stroke-miterlimit="4" id="path4343" d="m171.37811,70.44198c0,23.78784 -40.20168,49.09392 -67.55751,49.09392c-27.35582,0 -65.55753,-9.30608 -65.55753,-33.09392c5.74582,-25.22431 64.76505,-61.91161 93.55732,-69.09393c27.35583,0 39.55772,29.30608 39.55772,53.09393z"/>
   </g>
  </g>
 </g>
</svg>